#define mori_width 64
#define mori_height 64
static char mori_bits[] = {
   0x00, 0x00, 0x00, 0x00, 0x00, 0x00, 0x00, 0x00, 0x00, 0x00, 0x00, 0x00,
   0x00, 0x00, 0x00, 0x00, 0x00, 0x00, 0x00, 0x00, 0x00, 0x00, 0x00, 0x00,
   0x00, 0x00, 0x00, 0x00, 0x00, 0x00, 0x00, 0x00, 0x00, 0x00, 0x00, 0x00,
   0x00, 0x00, 0x00, 0x00, 0x00, 0x00, 0x00, 0xf6, 0xff, 0x00, 0x00, 0x00,
   0x00, 0x00, 0x00, 0x39, 0xfc, 0x0f, 0x00, 0x00, 0x00, 0x00, 0x60, 0x1d,
   0x11, 0x3f, 0x00, 0x00, 0x00, 0x00, 0x60, 0x4c, 0x44, 0x74, 0x00, 0x00,
   0x00, 0x00, 0x30, 0x11, 0x11, 0xf1, 0x00, 0x00, 0x00, 0x00, 0x78, 0x44,
   0x44, 0xc4, 0x01, 0x00, 0x00, 0x00, 0x16, 0x11, 0x11, 0x11, 0x03, 0x00,
   0x00, 0x00, 0x47, 0x44, 0x44, 0x64, 0x06, 0x00, 0x00, 0x80, 0x11, 0x11,
   0x11, 0x91, 0x0c, 0x00, 0x00, 0x60, 0x44, 0xfe, 0x5f, 0x44, 0x19, 0x00,
   0x00, 0x20, 0x91, 0xff, 0xff, 0x11, 0x13, 0x00, 0x00, 0x50, 0xc4, 0xff,
   0xff, 0x47, 0x34, 0x00, 0x00, 0x10, 0xf1, 0x01, 0xe0, 0x1f, 0x29, 0x00,
   0x00, 0x48, 0x7c, 0x58, 0x44, 0x7f, 0x6c, 0x00, 0x00, 0x38, 0x19, 0x1d,
   0x11, 0xf8, 0x51, 0x00, 0x00, 0x58, 0x4c, 0x44, 0x54, 0xc4, 0x74, 0x00,
   0x00, 0x08, 0x71, 0x1d, 0x29, 0x91, 0x71, 0x00, 0x00, 0x50, 0x24, 0x48,
   0x6d, 0x4c, 0xe4, 0x00, 0x00, 0x10, 0x73, 0x1d, 0x39, 0x15, 0xd1, 0x00,
   0x00, 0x50, 0xa6, 0x48, 0x75, 0x53, 0xc4, 0x00, 0x00, 0x10, 0xb3, 0x15,
   0x55, 0x13, 0xd1, 0x00, 0x00, 0x48, 0xe4, 0x53, 0xa5, 0x51, 0x84, 0x00,
   0x00, 0x18, 0x39, 0x1e, 0x57, 0x53, 0x91, 0x00, 0x00, 0x48, 0x2c, 0x72,
   0x96, 0xe2, 0xc4, 0x00, 0x00, 0x78, 0x3b, 0x74, 0xf7, 0xc1, 0x91, 0x00,
   0x00, 0xa8, 0x76, 0xd4, 0x3a, 0x80, 0x87, 0x00, 0x00, 0x78, 0x5b, 0xf8,
   0x15, 0x80, 0x92, 0x00, 0x00, 0x30, 0x6e, 0x00, 0x0f, 0x80, 0xa6, 0x01,
   0x00, 0x70, 0x1f, 0x00, 0xe0, 0x8f, 0xb2, 0x01, 0x00, 0x20, 0x96, 0x3f,
   0xf0, 0x91, 0x0e, 0x01, 0x00, 0x70, 0xc7, 0x1e, 0xe0, 0x81, 0x52, 0x01,
   0x00, 0xc0, 0x06, 0x0e, 0x00, 0x80, 0x0e, 0x01, 0x00, 0xc0, 0x0f, 0x00,
   0x00, 0x80, 0x52, 0x01, 0x00, 0x40, 0x0e, 0x40, 0x00, 0x80, 0x0d, 0x01,
   0x00, 0x40, 0x0f, 0x40, 0x00, 0x80, 0x41, 0x01, 0x00, 0xc0, 0x1a, 0x40,
   0x00, 0xc0, 0x17, 0x01, 0x00, 0x40, 0x13, 0x40, 0x00, 0xc0, 0x40, 0x01,
   0x00, 0x40, 0x12, 0x00, 0x00, 0xc0, 0x14, 0x01, 0x00, 0x40, 0x1d, 0x00,
   0x00, 0x60, 0x41, 0x01, 0x00, 0x40, 0x10, 0x00, 0x00, 0x60, 0x16, 0x01,
   0x00, 0x40, 0x21, 0xc0, 0x07, 0x50, 0x41, 0x01, 0x00, 0x40, 0x54, 0xc0,
   0x07, 0x48, 0x94, 0x00, 0x00, 0x40, 0xc1, 0x80, 0x01, 0x4c, 0xc1, 0x00,
   0x00, 0x40, 0x94, 0x03, 0x00, 0x4e, 0x94, 0x00, 0x00, 0x40, 0x41, 0x07,
   0x00, 0xc7, 0xc0, 0x00, 0x00, 0x40, 0x14, 0x3f, 0xc0, 0x47, 0x97, 0x00,
   0x00, 0x40, 0x41, 0xf3, 0xff, 0x63, 0x7e, 0x00, 0x00, 0x40, 0x14, 0xc3,
   0xff, 0x61, 0x15, 0x00, 0x00, 0x40, 0x41, 0x03, 0x7f, 0xe0, 0x01, 0x00,
   0x00, 0x40, 0x14, 0x03, 0x3e, 0x70, 0x00, 0x00, 0x00, 0xc0, 0x41, 0x03,
   0x08, 0x00, 0x00, 0x00, 0x00, 0x00, 0x1d, 0x03, 0x00, 0x00, 0x00, 0x00,
   0x00, 0x00, 0xf0, 0x03, 0x00, 0x00, 0x00, 0x00, 0x00, 0x00, 0x00, 0x00,
   0x00, 0x00, 0x00, 0x00, 0x00, 0x00, 0x00, 0x00, 0x00, 0x00, 0x00, 0x00,
   0x00, 0x00, 0x00, 0x00, 0x00, 0x00, 0x00, 0x00, 0x00, 0x00, 0x00, 0x00,
   0x00, 0x00, 0x00, 0x00, 0x00, 0x00, 0x00, 0x00, 0x00, 0x00, 0x00, 0x00,
   0x00, 0x00, 0x00, 0x00, 0x00, 0x00, 0x00, 0x00};
